<svg version="1.1" xmlns="http://www.w3.org/2000/svg" xmlns:xlink="http://www.w3.org/1999/xlink" width="223" height="227" viewBox="0,0,223,227"><g transform="translate(-129.5,-63.3)"><g data-paper-data="{&quot;isPaintingLayer&quot;:true}" fill-rule="nonzero" stroke-linecap="butt" stroke-linejoin="miter" stroke-miterlimit="10" stroke-dasharray="" stroke-dashoffset="0" style="mix-blend-mode: normal"><path d="M233.86405,217.42465v-37.14926h49.7728v37.14926z" fill="#fafafa" stroke="#b7b1ab" stroke-width="6"/><path d="M233.86405,179.91471v-37.14927h49.7728v37.14927z" fill="#fafafa" stroke="#b7b1ab" stroke-width="6"/><path d="M192.39127,221.03136c0,-18.59034 0,-70.86241 0,-81.51198c0,-3.69966 1.8852,-7.12812 4.18024,-7.12812c8.99611,0 67.10857,0 85.47938,0c3.50038,0 5.55791,3.04845 5.55791,4.96408c0,2.6329 0,13.3449 0,13.3449c0,0 -38.95262,0.84157 -38.95262,28.8538c0,29.45492 38.95262,29.57514 38.95262,29.57514c0,0 0,8.56992 0,11.5415c0,2.50825 -2.3432,6.93811 -6.27926,6.93811c-18.81335,0 -74.01707,0 -83.67602,0c-2.82492,0 -5.26226,-2.46434 -5.26226,-6.57744z" fill="#faa51f" stroke="#8e5322" stroke-width="8"/><path d="M222.86808,158.72033c0,-6.87219 5.57101,-12.4432 12.4432,-12.4432c6.87219,0 12.4432,5.57101 12.4432,12.4432c0,6.87219 -5.57101,12.4432 -12.4432,12.4432c-6.87219,0 -12.4432,-5.57101 -12.4432,-12.4432z" fill="#ffffff" stroke="none" stroke-width="0"/><path d="M228.81917,158.72033c0,-3.58549 2.90662,-6.4921 6.49211,-6.4921c3.58549,0 6.4921,2.90661 6.4921,6.4921c0,3.58549 -2.90661,6.49211 -6.4921,6.49211c-3.58549,0 -6.49211,-2.90662 -6.49211,-6.49211z" fill="#000000" stroke="none" stroke-width="0"/><path d="M129.5,290.30001v-227h223v227z" fill="none" stroke="none" stroke-width="0"/></g></g></svg>